<svg width="34" height="34" viewBox="0 0 34 34" fill="none" xmlns="http://www.w3.org/2000/svg">
<path d="M21.25 4.25C24.0504 4.25218 25.5183 4.2879 26.6561 4.86763C27.7223 5.41091 28.5892 6.2778 29.1325 7.34405C29.7122 8.48183 29.7478 9.94967 29.75 12.75M21.25 29.75C24.0504 29.7478 25.5183 29.7121 26.6561 29.1324C27.7223 28.5891 28.5892 27.7222 29.1325 26.6559C29.7122 25.5182 29.7478 24.0503 29.75 21.25M12.75 29.75C9.94958 29.7478 8.48171 29.7121 7.34392 29.1324C6.27766 28.5891 5.41077 27.7222 4.86749 26.6559C4.28777 25.5182 4.25219 24.0503 4.25 21.25M4.25 12.75C4.25218 9.94968 4.28673 8.48183 4.86645 7.34405C5.40974 6.2778 6.27663 5.41091 7.34288 4.86763C8.48081 4.28782 9.94891 4.25232 12.75 4.25014M25.5 17C25.5 18.619 22.1944 22.6667 17 22.6667C11.8056 22.6667 8.5 18.619 8.5 17C8.5 15.381 11.8056 11.3333 17 11.3333C22.1944 11.3333 25.5 15.381 25.5 17ZM18.4167 17C18.4167 17.7824 17.7824 18.4167 17 18.4167C16.2176 18.4167 15.5833 17.7824 15.5833 17C15.5833 16.2176 16.2176 15.5833 17 15.5833C17.7824 15.5833 18.4167 16.2176 18.4167 17Z" stroke="#111111" stroke-width="2" stroke-linecap="round" stroke-linejoin="round"/>
</svg>
