<svg width="21" height="21" viewBox="0 0 21 21" fill="none" xmlns="http://www.w3.org/2000/svg">
<path d="M10.15 19.3C15.2034 19.3 19.3 15.2034 19.3 10.15C19.3 5.09659 15.2034 1 10.15 1C5.09659 1 1 5.09659 1 10.15C1 15.2034 5.09659 19.3 10.15 19.3Z" stroke="#111111" stroke-width="2" stroke-linecap="round" stroke-linejoin="round"/>
<path d="M10.1499 15.1499C12.9113 15.1499 15.1499 12.9113 15.1499 10.1499C15.1499 7.38848 12.9113 5.1499 10.1499 5.1499C7.38848 5.1499 5.1499 7.38848 5.1499 10.1499C5.1499 12.9113 7.38848 15.1499 10.1499 15.1499Z" stroke="#111111" stroke-width="2" stroke-linecap="round" stroke-linejoin="round"/>
<path d="M11.1499 10.1499C11.1499 10.7022 10.7022 11.1499 10.1499 11.1499C9.5976 11.1499 9.1499 10.7022 9.1499 10.1499C9.1499 9.5976 9.5976 9.1499 10.1499 9.1499C10.7022 9.1499 11.1499 9.5976 11.1499 10.1499Z" stroke="#111111" stroke-width="2" stroke-linecap="round" stroke-linejoin="round"/>
</svg>
